<?xml version="1.0" encoding="UTF-8"?>
<svg version="1.1" xmlns="http://www.w3.org/2000/svg" width="512" height="512">
<path d="M0 0 C5.28 0 10.56 0 16 0 C16 97.68 16 195.36 16 296 C31.84 296 47.68 296 64 296 C63.84272656 285.63469381 63.84272656 285.63469381 63.63964844 275.27026367 C63.54163238 262.39300873 65.91378402 252.51803615 75 243 C84.22713177 234.19149047 93.85044324 231.37425699 106.36474609 231.52929688 C118.19197507 231.99750472 126.84107107 236.5483695 134.97265625 245.06640625 C143.94853306 255.71930463 144.55526385 266.86676467 144.25 280.1875 C144.22988817 281.7271901 144.21164574 283.2669058 144.1953125 284.80664062 C144.15172461 288.53830208 144.08296116 292.26898158 144 296 C144.94206299 295.97905273 145.88412598 295.95810547 146.85473633 295.93652344 C150.40155114 295.86772511 153.94764135 295.81790186 157.49487305 295.78027344 C159.02037859 295.76034689 160.54580968 295.73319515 162.07104492 295.69824219 C175.82078842 295.39138871 186.70613815 297.17315645 197 307 C205.80850953 316.22713177 208.62574301 325.85044324 208.47070312 338.36474609 C208.00249528 350.19197507 203.4516305 358.84107107 194.93359375 366.97265625 C184.23992789 375.98288276 173.25709302 376.55172067 159.8125 376.25 C154.594375 376.1675 149.37625 376.085 144 376 C144 391.84 144 407.68 144 424 C241.68 424 339.36 424 440 424 C440 429.28 440 434.56 440 440 C322.19 440.495 322.19 440.495 202 441 C203.65 444.3 205.3 447.6 207 451 C209.64490234 461.57960935 209.34150047 474.34421069 204 484 C198.37977112 493.01275045 190.47361334 500.02966993 180.28515625 503.33984375 C168.30624065 505.7470218 156.08878428 505.04405611 145.58203125 498.4921875 C136.61370605 492.03258979 130.55711366 483.79774766 128 473 C127.54144458 467.24990534 127.62053481 461.58143455 127.75 455.8125 C127.8325 450.594375 127.915 445.37625 128 440 C112.16 440 96.32 440 80 440 C80.15727344 450.36530619 80.15727344 450.36530619 80.36035156 460.72973633 C80.45836762 473.60699127 78.08621598 483.48196385 69 493 C59.77286823 501.80850953 50.14955676 504.62574301 37.63525391 504.47070312 C25.80802493 504.00249528 17.15892893 499.4516305 9.02734375 490.93359375 C0.05146694 480.28069537 -0.55526385 469.13323533 -0.25 455.8125 C-0.22988817 454.2728099 -0.21164574 452.7330942 -0.1953125 451.19335938 C-0.15172461 447.46169792 -0.08296116 443.73101842 0 440 C-0.94206299 440.02094727 -1.88412598 440.04189453 -2.85473633 440.06347656 C-6.40155114 440.13227489 -9.94764135 440.18209814 -13.49487305 440.21972656 C-15.02037859 440.23965311 -16.54580968 440.26680485 -18.07104492 440.30175781 C-31.82078842 440.60861129 -42.70613815 438.82684355 -53 429 C-61.80850953 419.77286823 -64.62574301 410.14955676 -64.47070312 397.63525391 C-64.00249528 385.80802493 -59.4516305 377.15892893 -50.93359375 369.02734375 C-40.23992789 360.01711724 -29.25709302 359.44827933 -15.8125 359.75 C-10.594375 359.8325 -5.37625 359.915 0 360 C0 344.16 0 328.32 0 312 C-10.36530619 312.15727344 -10.36530619 312.15727344 -20.72973633 312.36035156 C-33.60699127 312.45836762 -43.48196385 310.08621598 -53 301 C-61.80850953 291.77286823 -64.62574301 282.14955676 -64.47070312 269.63525391 C-64.00249528 257.80802493 -59.4516305 249.15892893 -50.93359375 241.02734375 C-40.77008536 232.46381522 -29.99022448 230.87345025 -17.09716797 231.75488281 C-11.10410499 232.45535257 -5.97034159 234.68643894 -1 238 C-0.67 159.46 -0.34 80.92 0 0 Z M-43.5546875 258.90234375 C-47.67977895 264.88930081 -47.71608142 270.94935212 -47 278 C-45.20320815 284.73228337 -40.51679152 289.01995 -35 293 C-29.7436915 295.75330445 -24.02432048 296.12916301 -18.1640625 296.09765625 C-16.56884766 296.09282227 -16.56884766 296.09282227 -14.94140625 296.08789062 C-13.84699219 296.07951172 -12.75257812 296.07113281 -11.625 296.0625 C-10.50738281 296.05798828 -9.38976563 296.05347656 -8.23828125 296.04882812 C-5.49213196 296.03709244 -2.74609414 296.02067363 0 296 C0.05872928 292.1875662 0.09383916 288.37525094 0.125 284.5625 C0.14175781 283.49322266 0.15851563 282.42394531 0.17578125 281.32226562 C0.23095828 272.30082167 -0.06995396 264.21221816 -6 257 C-11.39864762 251.63991415 -16.00084032 248.72738086 -23.8125 248.625 C-32.9589133 248.82675912 -37.71167473 252.06737765 -43.5546875 258.90234375 Z M86.125 256.9375 C76.93555006 268.2363464 80 281.6122712 80 296 C95.84 296 111.68 296 128 296 C129.48395409 275.37546742 129.48395409 275.37546742 122 257 C116.60135238 251.63991415 111.99915968 248.72738086 104.1875 248.625 C96.14290204 248.80245437 91.54381678 251.051352 86.125 256.9375 Z M16 312 C16 327.84 16 343.68 16 360 C31.84 360 47.68 360 64 360 C64 344.16 64 328.32 64 312 C48.16 312 32.32 312 16 312 Z M80 312 C80 327.84 80 343.68 80 360 C95.84 360 111.68 360 128 360 C128 344.16 128 328.32 128 312 C112.16 312 96.32 312 80 312 Z M144 312 C144 327.84 144 343.68 144 360 C164.62453258 361.48395409 164.62453258 361.48395409 183 354 C188.36008585 348.60135238 191.27261914 343.99915968 191.375 336.1875 C191.22475225 329.37626873 189.8313374 324.98502168 185.12890625 320.02734375 C173.07146161 308.92720095 160.9114964 312 144 312 Z M-39 382 C-44.36008585 387.39864762 -47.27261914 392.00084032 -47.375 399.8125 C-47.22475225 406.62373127 -45.8313374 411.01497832 -41.12890625 415.97265625 C-29.07146161 427.07279905 -16.9114964 424 0 424 C0 408.16 0 392.32 0 376 C-20.62453258 374.51604591 -20.62453258 374.51604591 -39 382 Z M16 376 C16 391.84 16 407.68 16 424 C31.84 424 47.68 424 64 424 C64 408.16 64 392.32 64 376 C48.16 376 32.32 376 16 376 Z M80 376 C80 391.84 80 407.68 80 424 C95.84 424 111.68 424 128 424 C128 408.16 128 392.32 128 376 C112.16 376 96.32 376 80 376 Z M16 440 C14.51604591 460.62453258 14.51604591 460.62453258 22 479 C27.39864762 484.36008585 32.00084032 487.27261914 39.8125 487.375 C46.62373127 487.22475225 51.01497832 485.8313374 55.97265625 481.12890625 C67.07279905 469.07146161 64 456.9114964 64 440 C48.16 440 32.32 440 16 440 Z M144 440 C143.94127072 443.8124338 143.90616084 447.62474906 143.875 451.4375 C143.85824219 452.50677734 143.84148437 453.57605469 143.82421875 454.67773438 C143.76904172 463.69917833 144.06995396 471.78778184 150 479 C155.39864762 484.36008585 160.00084032 487.27261914 167.8125 487.375 C174.62373127 487.22475225 179.01497832 485.8313374 183.97265625 481.12890625 C189.85791995 474.73608387 191.49609036 469.67692982 191.3046875 461 C190.6379037 454.43474416 187.84342063 450.52633903 183.0625 446.125 C176.67317813 440.92850902 170.30332378 439.85858428 162.1640625 439.90234375 C160.56884766 439.90717773 160.56884766 439.90717773 158.94140625 439.91210938 C157.29978516 439.92467773 157.29978516 439.92467773 155.625 439.9375 C154.50738281 439.94201172 153.38976562 439.94652344 152.23828125 439.95117188 C149.49213196 439.96290756 146.74609414 439.97932637 144 440 Z " fill="#e2a161" transform="translate(64,8)"/>
<path d="M0 0 C73.92 0 147.84 0 224 0 C224 5.28 224 10.56 224 16 C150.08 16 76.16 16 0 16 C0 10.72 0 5.44 0 0 Z " fill="#e2a161" transform="translate(280,392)"/>
<path d="M0 0 C5.28 0 10.56 0 16 0 C16 73.92 16 147.84 16 224 C10.72 224 5.44 224 0 224 C0 150.08 0 76.16 0 0 Z " fill="#e2a161" transform="translate(104,8)"/>
</svg>
