<?xml version="1.0" encoding="UTF-8"?>
<svg version="1.1" xmlns="http://www.w3.org/2000/svg" width="512" height="512">
<path d="M0 0 C1.45365927 -0.00379389 2.90731489 -0.00930266 4.36096191 -0.01637268 C8.26792099 -0.03020173 12.1744335 -0.01924881 16.08136725 -0.00266147 C20.19127639 0.0113056 24.30116265 0.00471611 28.41108704 0.00120544 C35.30619408 -0.00148664 42.20112604 0.01189529 49.09619141 0.03515625 C57.04603226 0.0617914 64.99558121 0.06349927 72.94545144 0.05176789 C80.62615071 0.04095871 88.30674531 0.04719971 95.98743629 0.06132317 C99.24197707 0.06705261 102.49644048 0.0670245 105.75098228 0.06225777 C109.58679671 0.05745655 113.42229468 0.06771846 117.25804901 0.08921242 C118.65838619 0.09473675 120.05875404 0.09528605 121.45909309 0.09025955 C134.7326552 0.04861746 145.77257442 2.34227128 156.01293945 11.24780273 C164.35848209 19.93656033 167.07495041 30.83302119 167.00512695 42.50170898 C168.10276367 42.48076172 169.20040039 42.45981445 170.33129883 42.43823242 C174.48366756 42.36470973 178.63598156 42.31951032 182.78881836 42.28198242 C184.57114398 42.26211829 186.3534067 42.23501738 188.13549805 42.19995117 C208.38568046 41.81206035 226.64501147 45.15704811 242.38012695 58.87670898 C243.94105415 60.39887143 245.48326514 61.94048868 247.00512695 63.50170898 C247.7734082 64.23776367 248.54168945 64.97381836 249.33325195 65.73217773 C262.79414307 79.3991029 268.12148287 97.92452573 268.18212891 116.72241211 C268.1887001 117.61927231 268.1952713 118.51613251 268.20204163 119.44017029 C268.22164343 122.38776753 268.23340394 125.33531431 268.2434082 128.28295898 C268.24748373 129.29383072 268.25155926 130.30470245 268.25575829 131.34620667 C268.27655681 136.69051912 268.2908888 142.03480632 268.30029297 147.37915039 C268.31138203 152.89041184 268.34582857 158.40127231 268.38546467 163.91239166 C268.41161846 168.16067245 268.41998341 172.40885709 268.42357445 176.6572113 C268.42843865 178.68894681 268.44004786 180.72067808 268.45861244 182.75233459 C268.48299142 185.59554976 268.48204181 188.43771792 268.47509766 191.28100586 C268.49431274 192.53118752 268.49431274 192.53118752 268.51391602 193.80662537 C268.46330693 199.50629515 267.23891187 202.78928034 264.00512695 207.50170898 C260.85212896 210.49705708 257.25433311 211.74134866 252.94262695 211.93920898 C247.513055 211.33592321 244.41125297 210.02184522 240.69262695 206.00170898 C237.61574619 201.44336712 237.85990006 197.22401274 237.86328125 191.92211914 C237.85806961 190.60679199 237.85806961 190.60679199 237.85275269 189.26489258 C237.84539602 187.35788228 237.84005016 185.45086343 237.83646202 183.54384232 C237.82928586 180.51551682 237.81360702 177.48735236 237.79512024 174.45907593 C237.74273053 165.84749671 237.69475908 157.23600244 237.67919922 148.62426758 C237.66905622 143.35567242 237.6395653 138.0874782 237.59787941 132.81904221 C237.58564626 130.82023543 237.58043395 128.82137179 237.58267784 126.82252884 C237.59617525 110.86283073 236.57737677 96.89443736 225.2277832 84.57202148 C216.79218887 76.53319335 206.91276503 73.42670332 195.52075195 73.18530273 C194.70515808 73.16452164 193.88956421 73.14374054 193.04925537 73.12232971 C190.4512959 73.05709602 187.85323782 72.99807131 185.25512695 72.93920898 C183.49079396 72.89599885 181.72647083 72.85238376 179.9621582 72.80834961 C175.64324812 72.70144153 171.32423911 72.60010071 167.00512695 72.50170898 C166.95251709 73.38431396 166.89990723 74.26691895 166.84570312 75.17626953 C166.72932495 76.92097534 166.72932495 76.92097534 166.6105957 78.70092773 C166.53736084 79.85165771 166.46412598 81.0023877 166.38867188 82.18798828 C165.22720035 92.22277698 158.60918093 100.92643052 150.93481445 107.18530273 C144.35438514 111.67438103 137.63252714 113.61875655 129.7449646 113.64888 C128.45813782 113.65603531 127.17131104 113.66319061 125.8454895 113.67056274 C124.42132593 113.67340285 122.99716209 113.6761146 121.57299805 113.67871094 C120.07140954 113.68497833 118.56982258 113.69162538 117.0682373 113.69862366 C112.13835728 113.71963733 107.20847705 113.73002498 102.27856445 113.73999023 C100.57870086 113.74403909 98.87883742 113.74815605 97.17897415 113.75234032 C89.19022018 113.77138775 81.20147541 113.78561852 73.21270311 113.79395229 C64.00527209 113.80371698 54.79808197 113.83001825 45.59073579 113.87045318 C38.4652904 113.90066614 31.33991384 113.91542615 24.21440566 113.9187333 C19.96294115 113.92107828 15.71173412 113.92996624 11.46033859 113.95519447 C7.45638506 113.97857054 3.45285677 113.98267048 -0.55114746 113.97243309 C-2.01439203 113.97193989 -3.47765822 113.97819619 -4.94083786 113.99198914 C-18.48483143 114.11243955 -27.97042508 111.1620981 -38.05737305 101.93920898 C-44.82809601 95.01283722 -48.04144555 86.27287457 -48.05737305 76.68920898 C-48.04143294 75.2933112 -48.02224012 73.8974295 -47.99487305 72.50170898 C-53.04513103 72.54631985 -58.09419253 72.61661898 -63.14379883 72.70922852 C-64.85626627 72.73719635 -66.568857 72.75852926 -68.28149414 72.77270508 C-84.04209131 72.91087513 -95.97298062 74.80015102 -107.70581055 86.15795898 C-118.40628041 97.67318543 -119.31037388 112.03467313 -119.24884033 127.06971741 C-119.25196031 128.26475543 -119.25508029 129.45979345 -119.25829482 130.69104475 C-119.26483492 133.96781713 -119.26255866 137.24443819 -119.25632238 140.5212065 C-119.25176207 144.07066898 -119.25879921 147.62011235 -119.26428223 151.16957092 C-119.2731397 158.10678758 -119.27127063 165.04396076 -119.26545694 171.98117907 C-119.2609264 177.62245527 -119.26033355 183.26371936 -119.26250458 188.90499687 C-119.26281104 189.71017631 -119.26311751 190.51535575 -119.26343326 191.34493456 C-119.26407276 192.98100985 -119.26472119 194.61708513 -119.26537845 196.25316041 C-119.27107096 211.56662513 -119.26454062 226.88006584 -119.25377771 242.19352662 C-119.24484148 255.31392559 -119.24639694 268.43428917 -119.25561523 281.5546875 C-119.26633401 296.81771042 -119.27052353 312.08071234 -119.26439071 327.3437385 C-119.26375366 328.97323795 -119.26312491 330.6027374 -119.26250458 332.23223686 C-119.26204175 333.43463208 -119.26204175 333.43463208 -119.26156957 334.66131811 C-119.25984758 340.29191298 -119.26274698 345.92249445 -119.26746368 351.55308723 C-119.27309033 358.42038947 -119.27151863 365.28764601 -119.2609022 372.15494306 C-119.25566967 375.65418101 -119.25354716 379.15334298 -119.2602005 382.65258026 C-119.26568911 386.45535667 -119.25878149 390.25792118 -119.24884033 394.0606842 C-119.25330178 395.15301945 -119.25776322 396.2453547 -119.26235986 397.37079102 C-119.1913439 411.43683901 -116.94822887 424.1672894 -107.7331543 435.21264648 C-100.03385916 442.67637542 -89.82251963 447.60806407 -78.99856567 447.63973999 C-77.4887764 447.64792 -77.4887764 447.64792 -75.94848633 447.65626526 C-74.85020508 447.65730759 -73.75192383 447.65834991 -72.62036133 447.65942383 C-70.8782991 447.66704491 -70.8782991 447.66704491 -69.1010437 447.67481995 C-66.57798136 447.68552288 -64.05490954 447.69414336 -61.53183365 447.70093918 C-57.53923679 447.71272307 -53.54671766 447.73189252 -49.5541687 447.75405884 C-38.2019231 447.81590765 -26.84968304 447.86998669 -15.49731445 447.90307617 C-9.22502023 447.92143839 -2.95286748 447.95039216 3.31932271 447.99108088 C6.63609617 448.01212013 9.95265302 448.02591628 13.26949692 448.02988815 C16.97048465 448.03478969 20.67094531 448.05792896 24.37182617 448.08520508 C26.01317535 448.08069588 26.01317535 448.08069588 27.68768311 448.07609558 C33.19053837 448.13640497 37.29509383 448.31786572 42.00512695 451.50170898 C46.45094617 456.4281573 47.35599677 459.45309678 47.2902832 465.95874023 C46.7693944 470.60392671 44.34623482 473.32315964 40.94262695 476.31420898 C37.63779208 478.33975294 34.9293174 478.62923153 31.14494324 478.64215088 C30.14293884 478.64786102 29.14093445 478.65357117 28.10856628 478.65945435 C27.00990738 478.6605722 25.91124847 478.66169006 24.77929688 478.6628418 C23.04209885 478.67028915 23.04209885 478.67028915 21.26980591 478.67788696 C17.42506317 478.69253033 13.58036179 478.69931676 9.7355957 478.70483398 C7.73681661 478.70913249 5.73803751 478.71343152 3.73925859 478.71780849 C-1.83809403 478.72962569 -7.41543667 478.73715793 -12.99280053 478.74060369 C-20.17620812 478.74506698 -27.35942378 478.7625307 -34.54277307 478.79160428 C-40.1107384 478.81334648 -45.67865029 478.82331482 -51.24665755 478.8246448 C-54.56373724 478.82568521 -57.88059756 478.83290935 -61.19764137 478.84946442 C-87.05579626 478.9692312 -109.07764467 476.09895676 -128.86987305 457.72045898 C-147.93157444 437.81780018 -149.61026274 415.49573365 -149.51777172 389.4341116 C-149.50864186 385.62216333 -149.52272987 381.8102858 -149.53369141 377.99835205 C-149.55139738 370.54968454 -149.54767222 363.10117903 -149.53604084 355.6525054 C-149.5269754 349.59414952 -149.52579591 343.53583876 -149.53013611 337.47747803 C-149.53074904 336.61237779 -149.53136197 335.74727755 -149.53199348 334.85596216 C-149.53327249 333.09805312 -149.53456935 331.3401441 -149.53588384 329.5822351 C-149.54726643 313.13173233 -149.53421248 296.681319 -149.51268238 280.23083091 C-149.49481351 266.14204239 -149.49791827 252.05338575 -149.51635742 237.96459961 C-149.53780527 221.56948746 -149.54616801 205.17445352 -149.53390837 188.7793293 C-149.53263429 187.02819953 -149.5313768 185.27706974 -149.53013611 183.52593994 C-149.52951901 182.66454481 -149.5289019 181.80314969 -149.5282661 180.91565168 C-149.52482492 174.87064878 -149.53061484 168.82569584 -149.54005432 162.78070068 C-149.55131931 155.40514308 -149.54814032 148.02975557 -149.52693135 140.65421724 C-149.51648103 136.89731528 -149.51219496 133.14069601 -149.52552795 129.38379669 C-149.61982399 100.43534045 -149.61982399 100.43534045 -144.99487305 88.50170898 C-144.7146656 87.75637405 -144.43445816 87.01103912 -144.14575958 86.24311829 C-137.26636059 69.57991357 -124.19602883 56.22752705 -107.99487305 48.50170898 C-98.03271092 44.48202393 -88.60884486 42.33668146 -77.87768555 42.40405273 C-77.02052948 42.40546768 -76.16337341 42.40688263 -75.28024292 42.40834045 C-72.56008315 42.41390877 -69.84000767 42.42645535 -67.11987305 42.43920898 C-65.26831174 42.44422808 -63.41674914 42.44879027 -61.56518555 42.45288086 C-57.04171589 42.46386781 -52.51830873 42.48111046 -47.99487305 42.50170898 C-48.01300049 41.85016846 -48.03112793 41.19862793 -48.04980469 40.52734375 C-48.23565632 29.01410051 -45.08521477 19.86548174 -36.99487305 11.50170898 C-26.65242883 1.30094208 -13.96524289 -0.10546325 0 0 Z M-17.99487305 35.50170898 C-18.87008254 37.66650292 -18.87008254 37.66650292 -18.75537109 39.93725586 C-18.77105637 40.78163208 -18.78674164 41.6260083 -18.80290222 42.49597168 C-18.78761978 43.39505249 -18.77233734 44.2941333 -18.7565918 45.22045898 C-18.75996048 46.15595581 -18.76332916 47.09145264 -18.76679993 48.05529785 C-18.76650155 50.02886465 -18.75129671 52.00247823 -18.72216797 53.97583008 C-18.68249536 56.99240901 -18.70146322 60.00458909 -18.72729492 63.02124023 C-18.71973536 64.94183016 -18.70878143 66.86241036 -18.6940918 68.78295898 C-18.7010759 69.68203979 -18.70806 70.58112061 -18.71525574 71.50744629 C-18.61482038 75.97358365 -18.44949579 77.91419941 -15.63867188 81.54663086 C-11.8135438 84.375297 -9.07259354 84.62845648 -4.44219971 84.64215088 C-3.28703857 84.64786102 -2.13187744 84.65357117 -0.94171143 84.65945435 C0.32690735 84.6605722 1.59552612 84.66169006 2.90258789 84.6628418 C4.25126277 84.66747085 5.59993635 84.67249563 6.9486084 84.67788696 C10.61407262 84.69100617 14.27951853 84.69745519 17.94500256 84.70189762 C20.2361062 84.70482964 22.52720484 84.70893473 24.81830597 84.71340179 C31.989604 84.7270766 39.1608906 84.73674286 46.33220077 84.74060369 C54.6046268 84.74508198 62.8768874 84.76261921 71.14926314 84.79160428 C77.54683575 84.81324041 83.94436189 84.82330903 90.34197068 84.8246448 C94.16127015 84.82569162 97.98041411 84.83157283 101.79967499 84.84946442 C105.39481716 84.86597821 108.98968748 84.86808473 112.58485413 84.85932541 C114.52653992 84.85819141 116.46821683 84.87188397 118.40985107 84.88607788 C127.13401135 84.84448153 127.13401135 84.84448153 135.00512695 81.50170898 C136.95949744 78.84577122 137.26047871 76.61339816 137.2956543 73.36328125 C137.308414 72.558871 137.32117371 71.75446075 137.33432007 70.92567444 C137.33654572 70.0651799 137.33877136 69.20468536 137.34106445 68.31811523 C137.34772125 67.42559555 137.35437805 66.53307587 137.36123657 65.61351013 C137.37134944 63.72820086 137.37605401 61.8428559 137.37573242 59.95751953 C137.38010636 57.07776809 137.41644161 54.19954883 137.4543457 51.32006836 C137.46021405 49.48608921 137.46418332 47.6521028 137.46606445 45.81811523 C137.487621 44.53040977 137.487621 44.53040977 137.50961304 43.21669006 C137.47836496 39.11564838 137.33779122 37.02937303 135.10131836 33.48193359 C131.78573558 30.34977754 129.84804538 30.37165688 125.37615967 30.34780884 C124.17885727 30.33920837 122.98155487 30.33060791 121.74797058 30.32174683 C120.41409345 30.31731147 119.08021586 30.31301312 117.74633789 30.30883789 C116.34692684 30.30093754 114.94751782 30.29266863 113.54811096 30.28405762 C108.94526111 30.25782761 104.34240212 30.24252807 99.73950195 30.22827148 C98.15532678 30.22291203 96.57115167 30.21753452 94.98697662 30.21213913 C88.3970201 30.19050812 81.80706603 30.17177162 75.21708298 30.16051674 C65.77162856 30.14427935 56.32658566 30.11110963 46.88128638 30.05411589 C40.24086747 30.01541302 33.60055859 29.99588361 26.96002984 29.99059618 C22.99363085 29.98694286 19.02767065 29.97492476 15.06139374 29.94249344 C11.32825715 29.91240654 7.59582468 29.90610264 3.8625927 29.9178772 C1.84312728 29.91820295 -0.17629472 29.89374081 -2.19560242 29.86849976 C-11.32044403 29.89943754 -11.32044403 29.89943754 -17.99487305 35.50170898 Z " fill="#181818" transform="translate(173.994873046875,16.498291015625)"/>
<path d="M0 0 C10.43632393 11.02532281 14.91017931 25.17554419 14.72045898 40.14306641 C13.95764847 59.29266153 3.04478851 71.62267718 -9.85449219 84.48217773 C-11.17836295 85.81639981 -12.50140945 87.15144017 -13.82369995 88.48722839 C-17.39286147 92.08724868 -20.97461647 95.67447381 -24.55986691 99.25846362 C-27.56023765 102.25966867 -30.55486949 105.26656971 -33.54972768 108.273274 C-40.61681889 115.36766767 -47.69479974 122.45106766 -54.77929688 129.52807617 C-62.07324786 136.8147777 -69.34659004 144.12160554 -76.61045337 151.43829006 C-82.86481047 157.73647023 -89.13266613 164.0209961 -95.411237 170.29503781 C-99.15366603 174.03514977 -102.89063258 177.78033337 -106.6142807 181.53915215 C-110.11515217 185.07205686 -113.63261521 188.58757045 -117.16327286 192.09070015 C-118.45159441 193.37458032 -119.73403799 194.66439184 -121.00989151 195.96066284 C-127.96735991 203.0218268 -133.74978376 208.5913413 -143.75 210.8125 C-144.60377102 211.01092216 -145.45754204 211.20934431 -146.33718491 211.41377926 C-148.69720062 211.92960285 -151.05758025 212.34387634 -153.44140625 212.734375 C-154.31216293 212.88408752 -155.18291962 213.03380005 -156.08006287 213.18804932 C-157.90173153 213.49869664 -159.72426605 213.80430672 -161.54760742 214.10498047 C-164.31231034 214.56246862 -167.07306077 215.03981802 -169.83398438 215.51953125 C-171.61959145 215.82149883 -173.405393 216.12231917 -175.19140625 216.421875 C-176.00211075 216.56244324 -176.81281525 216.70301147 -177.64808655 216.84783936 C-188.4659142 218.60213046 -197.93738825 218.44402722 -207.6015625 212.71484375 C-213.15831408 208.51165987 -217.15870401 201.88591416 -218.53955078 195.08251953 C-219.53787878 184.31401167 -216.79274329 172.86303412 -214.95849609 162.29125977 C-214.49943397 159.62170841 -214.06401516 156.94893666 -213.62890625 154.27539062 C-213.33217186 152.54402295 -213.0340422 150.81289372 -212.734375 149.08203125 C-212.61020203 148.29947464 -212.48602905 147.51691803 -212.35809326 146.71064758 C-209.9967075 133.59945283 -202.20416046 125.5400813 -193.07202148 116.48754883 C-191.76953845 115.17828049 -190.46811927 113.86795308 -189.16767883 112.55665588 C-185.64995942 109.01624118 -182.11672641 105.49170763 -178.57971072 101.9705832 C-174.86756826 98.27115568 -171.16770436 94.55947973 -167.46583557 90.84977722 C-161.24652222 84.62138133 -155.01677437 78.40356853 -148.78100586 72.19165039 C-141.59108716 65.02891604 -134.41932527 57.84838036 -127.25677437 50.65828687 C-121.089121 44.46787519 -114.91169134 38.28734626 -108.72612625 32.1148321 C-105.03962321 28.43608969 -101.35649898 24.75413499 -97.68218803 21.06321144 C-94.22393099 17.59041191 -90.75348076 14.13025936 -87.2736187 10.67911339 C-86.00524405 9.41729852 -84.74100885 8.15130541 -83.48147964 6.88066101 C-60.30253035 -16.48375702 -26.38645648 -24.6684735 0 0 Z M-60.75 27.5625 C-61.91208984 28.75166016 -61.91208984 28.75166016 -63.09765625 29.96484375 C-64.99127097 31.90521439 -66.87484287 33.8543148 -68.75 35.8125 C-67.45280076 38.67029017 -66.0863174 40.72258536 -63.86083984 42.92871094 C-62.99016373 43.79916046 -62.99016373 43.79916046 -62.10189819 44.68719482 C-61.47788116 45.30088928 -60.85386414 45.91458374 -60.2109375 46.546875 C-59.57008209 47.18490051 -58.92922668 47.82292603 -58.26895142 48.48028564 C-56.22562179 50.51244069 -54.17544018 52.53752218 -52.125 54.5625 C-50.7365214 55.9409453 -49.3484951 57.31984636 -47.9609375 58.69921875 C-44.56251303 62.07561894 -41.15792746 65.44569288 -37.75 68.8125 C-36.64419822 67.86965437 -35.53911452 66.92596652 -34.43432617 65.98193359 C-33.81885422 65.4565097 -33.20338226 64.93108582 -32.56925964 64.38973999 C-20.87477892 54.49249626 -20.87477892 54.49249626 -15.31640625 40.78125 C-14.85597475 32.73779358 -16.36361816 26.90194642 -21.75 20.8125 C-26.72706112 16.75399253 -31.4837043 14.6729508 -37.9375 14.5 C-38.83855469 14.46261719 -39.73960937 14.42523438 -40.66796875 14.38671875 C-49.4595023 15.60126521 -54.84185381 21.38812886 -60.75 27.5625 Z M-95.39379883 62.16868591 C-96.1509317 62.91295334 -96.90806458 63.65722076 -97.68814087 64.42404175 C-98.93499161 65.66518234 -98.93499161 65.66518234 -100.20703125 66.93139648 C-101.51938248 68.22644356 -101.51938248 68.22644356 -102.85824585 69.5476532 C-105.26324594 71.92415297 -107.66342827 74.30529397 -110.06054306 76.68973422 C-111.55898849 78.18010117 -113.05847805 79.66941006 -114.55825806 81.15843391 C-119.2521829 85.81961188 -123.94166031 90.48520354 -128.62532711 95.15668911 C-134.02778782 100.54491638 -139.44469967 105.91803606 -144.87467289 111.2785334 C-149.07222924 115.42422919 -153.2561711 119.58335338 -157.43019772 123.75273758 C-159.92243288 126.24158015 -162.42002508 128.72440298 -164.93203735 131.19329643 C-167.73859103 133.95251696 -170.51670028 136.73934632 -173.29296875 139.52905273 C-174.12420258 140.33826172 -174.9554364 141.1474707 -175.81185913 141.98120117 C-180.75644566 147.00750581 -183.02914789 150.78394476 -183.75 157.8125 C-183.9763916 159.08875244 -184.2027832 160.36500488 -184.43603516 161.67993164 C-184.63503418 162.93153076 -184.8340332 164.18312988 -185.0390625 165.47265625 C-185.14721283 166.14799911 -185.25536316 166.82334198 -185.36679077 167.51914978 C-185.70541455 169.63736885 -186.04028097 171.7561608 -186.375 173.875 C-186.60652025 175.32751392 -186.83828913 176.77998824 -187.0703125 178.23242188 C-187.63307472 181.7586627 -188.19247335 185.28542714 -188.75 188.8125 C-180.1285102 187.51351597 -171.51642068 186.18240406 -162.9375 184.625 C-161.87080078 184.45419922 -160.80410156 184.28339844 -159.70507812 184.10742188 C-158.66158203 183.91341797 -157.61808594 183.71941406 -156.54296875 183.51953125 C-155.6202417 183.3594458 -154.69751465 183.19936035 -153.74682617 183.03442383 C-146.02841665 179.88732487 -139.92741145 172.13097775 -134.13085938 166.30688477 C-133.31039124 165.48656265 -132.4899231 164.66624054 -131.64459229 163.82106018 C-128.95859836 161.13437481 -126.27615456 158.44417486 -123.59375 155.75390625 C-121.72210168 153.88039101 -119.85025679 152.00707426 -117.97814941 150.13401794 C-113.57065523 145.72342979 -109.16571386 141.3103014 -104.76170969 136.89622873 C-99.74305921 131.86635667 -94.72153021 126.8393625 -89.69977093 121.81259453 C-79.38000039 111.48240347 -69.06380529 101.14864681 -58.75 90.8125 C-59.68755857 89.7092633 -60.62648986 88.60719311 -61.565979 87.50559998 C-62.35005316 86.584835 -62.35005316 86.584835 -63.14996719 85.64546871 C-65.56935484 82.87386188 -68.13660862 80.26359539 -70.734375 77.66015625 C-71.54687714 76.84266151 -71.54687714 76.84266151 -72.37579346 76.00865173 C-73.50720313 74.87222814 -74.63992531 73.73710982 -75.77392578 72.60327148 C-77.51494258 70.8600384 -79.24776937 69.1089178 -80.98046875 67.35742188 C-82.08544897 66.24951255 -83.19090048 65.14207302 -84.296875 64.03515625 C-85.07342438 63.2478286 -85.07342438 63.2478286 -85.86566162 62.44459534 C-90.13529391 58.20227289 -91.15805802 57.97951511 -95.39379883 62.16868591 Z " fill="#181818" transform="translate(472.75,277.1875)"/>
<path d="M0 0 C0.66242864 -0.00467997 1.32485727 -0.00935994 2.0073595 -0.01418173 C4.21369114 -0.02609024 6.41939684 -0.01669131 8.62573242 -0.00723267 C10.21292481 -0.01130023 11.80011437 -0.01664315 13.38729858 -0.02316284 C17.6889327 -0.03682033 21.99035056 -0.0315443 26.29198837 -0.02202559 C30.79752935 -0.01442087 35.30305203 -0.02147686 39.80859375 -0.02618408 C47.37430133 -0.03163926 54.939921 -0.02445625 62.50561523 -0.01016235 C71.24778571 0.00616371 79.98974627 0.00087504 88.73191166 -0.01564157 C96.24291052 -0.0292632 103.75384625 -0.03117279 111.26485348 -0.02332556 C115.74859494 -0.01865277 120.2322378 -0.01801337 124.7159729 -0.02793503 C128.93167554 -0.03661227 133.14710801 -0.03056903 137.36278152 -0.01325226 C138.90831682 -0.00929145 140.45387492 -0.01041453 141.99940109 -0.01704025 C144.1123733 -0.02526228 146.22448469 -0.01492749 148.33740234 0 C150.1093824 0.00169662 150.1093824 0.00169662 151.91716003 0.00342751 C156.89987623 0.58195073 160.13264366 2.2328872 163.48120117 5.94345093 C166.74544268 10.65846644 166.80128448 14.73969431 166.16870117 20.38095093 C163.55549278 25.51403884 160.62932876 28.56074173 155.16870117 30.38095093 C153.03078558 30.4812424 150.88984051 30.52033196 148.74958801 30.52812195 C147.768032 30.53363698 147.768032 30.53363698 146.76664656 30.53926343 C144.56968354 30.55029346 142.37276782 30.55414296 140.17578125 30.55795288 C138.60213063 30.56421811 137.0284815 30.57086496 135.45483398 30.5778656 C130.28264394 30.59890348 125.11045361 30.60926856 119.93823242 30.61923218 C118.15691296 30.62328001 116.37559366 30.62739694 114.59427452 30.63158226 C106.22429083 30.65063429 97.85431595 30.66486461 89.48431474 30.67319423 C79.82746478 30.68296343 70.17084424 30.70927458 60.5140751 30.74969512 C53.04728274 30.77987468 45.58055607 30.7946649 38.11370391 30.79797524 C33.65549555 30.80032388 29.19753227 30.80925977 24.73938942 30.83443642 C20.54257866 30.85775405 16.34617369 30.86193566 12.14931488 30.85167503 C10.61266669 30.85118044 9.07599827 30.85747845 7.53941154 30.87123108 C-0.45437132 30.9387477 -6.99045073 30.95250218 -13.83129883 26.38095093 C-16.757106 23.03421395 -17.69799509 19.21039644 -18.39379883 14.88095093 C-17.6580795 10.30314176 -16.01094772 6.78243579 -12.83129883 3.38095093 C-8.39037906 0.74677767 -5.13781364 0.0049193 0 0 Z " fill="#181818" transform="translate(141.831298828125,199.61904907226563)"/>
<path d="M0 0 C1.144189 -0.00744736 1.144189 -0.00744736 2.31149292 -0.01504517 C4.84137873 -0.02968007 7.37120181 -0.03647142 9.90112305 -0.04199219 C11.65748598 -0.0477431 13.4138489 -0.05350084 15.17021179 -0.05926514 C18.85647881 -0.06977928 22.542724 -0.07561906 26.22900391 -0.07910156 C30.95024452 -0.08458335 35.6711963 -0.10860281 40.39234638 -0.13707352 C44.02205749 -0.15570814 47.65169919 -0.16090596 51.28145409 -0.16243744 C53.02176681 -0.16546327 54.76207833 -0.17348949 56.50234413 -0.18662262 C58.93928527 -0.2036985 61.37552312 -0.20179918 63.8125 -0.1953125 C64.53008987 -0.20452728 65.24767975 -0.21374207 65.98701477 -0.22323608 C71.672158 -0.17588843 74.68937397 1.46249475 78.8503418 5.16113281 C82.12719148 8.90610388 81.93695395 12.90601607 81.8815918 17.65332031 C81.46494472 21.36842339 80.0777878 23.4158548 77.6003418 26.16113281 C72.3424388 29.97311248 67.94962677 30.28780617 61.55615234 30.32226562 C60.50412628 30.32971298 60.50412628 30.32971298 59.43084717 30.33731079 C57.11624155 30.35188605 54.80170447 30.35872681 52.48706055 30.36425781 C50.87286885 30.37001329 49.25867716 30.37577097 47.64448547 30.38153076 C44.26103396 30.39202771 40.87760612 30.39787885 37.49414062 30.40136719 C33.16997798 30.40684775 28.84613087 30.43087177 24.52206707 30.45933914 C21.18737387 30.47801237 17.85275596 30.48317362 14.51801491 30.48470306 C12.92449024 30.48771979 11.33096659 30.49571508 9.73749352 30.50888824 C7.5023268 30.52604669 5.26792166 30.52404507 3.03271484 30.51757812 C1.12887276 30.52304657 1.12887276 30.52304657 -0.81343079 30.52862549 C-5.49560277 30.04882772 -9.50061719 28.79618158 -13.1418457 25.66113281 C-16.90218316 20.68192735 -17.82229195 17.39498056 -17.3996582 11.16113281 C-14.14787134 2.43265228 -8.70474849 0.01344643 0 0 Z " stroke-width="20" stroke="#181818" fill="#181818" transform="translate(141.399658203125,281.8388671875)"/>
</svg>
