<?xml version="1.0" encoding="UTF-8"?>
<svg version="1.1" xmlns="http://www.w3.org/2000/svg" width="512" height="512">
<path d="M0 0 C1.20555918 -0.00654048 1.20555918 -0.00654048 2.43547308 -0.0132131 C5.145592 -0.02421638 7.85520714 -0.01372383 10.56532288 -0.00342751 C12.52108236 -0.00688206 14.4768399 -0.01164526 16.43259335 -0.01760924 C21.82023211 -0.03017662 27.20771223 -0.02392283 32.5953517 -0.01465058 C38.40046758 -0.00788386 44.2055555 -0.01832949 50.01066589 -0.02659035 C61.38815178 -0.03995533 72.76557841 -0.03703764 84.14306664 -0.02835242 C93.38684085 -0.02158715 102.63059842 -0.02065414 111.87437439 -0.02392387 C113.84511095 -0.02461342 113.84511095 -0.02461342 115.85566038 -0.0253169 C117.85534979 -0.0260356 119.8550392 -0.02675433 121.85472861 -0.02749758 C146.85488211 -0.03667898 171.85500325 -0.02834721 196.85515176 -0.01220688 C219.07667471 0.00203042 241.29814608 0.00075656 263.51966858 -0.01358986 C288.47347207 -0.02964633 313.42724694 -0.0360279 338.38105488 -0.02675307 C341.04014396 -0.02579738 343.69923305 -0.02485427 346.35832214 -0.02392387 C347.66676761 -0.02346105 348.97521308 -0.02299822 350.32330841 -0.02252137 C359.55981985 -0.01992719 368.79631304 -0.02431167 378.03282166 -0.03136253 C389.28352998 -0.03976189 400.53417549 -0.03753042 411.78487659 -0.0215203 C417.52909094 -0.01361648 423.27320043 -0.01058184 429.01741409 -0.02046776 C434.27027131 -0.02937156 439.5229259 -0.02455338 444.77576458 -0.0085351 C446.68148889 -0.00516892 448.58723012 -0.00692224 450.49294364 -0.01416247 C453.0731085 -0.02321721 455.65256915 -0.01399789 458.23269653 0 C458.98150483 -0.0070235 459.73031312 -0.014047 460.50181258 -0.02128333 C463.52884655 0.01178995 465.82879052 0.24046845 468.57761621 1.55060613 C470.71141717 4.08404127 470.61761143 5.69186191 470.61971283 8.9857235 C470.63014382 10.16026746 470.64057481 11.33481142 470.65132189 12.54494762 C470.642399 13.84152137 470.63347611 15.13809511 470.62428284 16.47395897 C470.62888916 17.86034965 470.63524028 19.24673546 470.64319181 20.633111 C470.6599455 24.45160199 470.6516117 28.26969496 470.63924694 32.08818769 C470.63022328 36.20277815 470.64415277 40.31729855 470.65516663 44.43187523 C470.67298526 52.49578536 470.66909703 60.55954687 470.65751606 68.62346292 C470.64849513 75.17515235 470.64725192 81.72680003 470.65161133 88.27849388 C470.65222426 89.20974262 470.65283719 90.14099136 470.6534687 91.10045975 C470.65474756 92.99206997 470.65604441 94.88368018 470.65735906 96.77529037 C470.66877466 114.52729173 470.65563582 132.27921056 470.6341576 150.03119838 C470.61628573 165.27461109 470.61938956 180.51790197 470.63783264 195.76131248 C470.65922209 213.44829408 470.66767593 231.13520329 470.65538359 248.82219601 C470.65410934 250.70698165 470.65285186 252.5917673 470.65161133 254.47655296 C470.65068567 255.86770389 470.65068567 255.86770389 470.64974132 257.28695887 C470.64628263 263.83338986 470.65212791 270.37977506 470.66152954 276.92619896 C470.67272954 284.90039411 470.66975175 292.87443171 470.64840657 300.84860873 C470.63786907 304.91987518 470.6338199 308.99087862 470.64700317 313.06214333 C470.65887757 316.78541631 470.65244748 320.50818121 470.63109297 324.23140776 C470.6244715 326.22430532 470.63760722 328.21723785 470.65132189 330.21009922 C470.6356754 331.97191516 470.6356754 331.97191516 470.61971283 333.76932335 C470.61906342 334.78724622 470.61841401 335.80516909 470.61774492 336.8539381 C470.11634827 339.37752342 470.11634827 339.37752342 468.2405889 341.20496446 C465.5816074 342.67269488 463.80747627 342.74720321 460.7759552 342.73828697 C459.15218964 342.74447296 459.15218964 342.74447296 457.49562073 342.75078392 C456.3131073 342.73999809 455.13059387 342.72921227 453.9122467 342.71809959 C452.038685 342.71875671 452.038685 342.71875671 450.12727356 342.71942711 C446.70591871 342.71769555 443.28510734 342.70265366 439.86384869 342.68170524 C436.2870818 342.66294744 432.71030763 342.66118871 429.13349915 342.65762901 C422.36202962 342.64830589 415.59070546 342.62368856 408.81929994 342.59358054 C401.10957996 342.5600448 393.39985302 342.54355262 385.69007826 342.52849424 C369.83208409 342.49713918 353.97423492 342.44437357 338.11634827 342.37752342 C338.13205872 343.57353172 338.14776917 344.76954002 338.16395569 346.001791 C338.21821888 350.43531635 338.25268517 354.8688123 338.28114319 359.30257225 C338.29623807 361.2222188 338.316716 363.14183082 338.34266663 365.06136131 C338.37901935 367.81917906 338.39606739 370.57654122 338.40931702 373.33455467 C338.4325428 374.62375565 338.4325428 374.62375565 338.45623779 375.93900108 C338.45646439 376.73960457 338.45669098 377.54020805 338.45692444 378.36507225 C338.46358627 379.06900612 338.47024811 379.77293999 338.47711182 380.49820518 C338.00081366 382.97937551 337.10402277 383.8593316 335.11634827 385.37752342 C331.89544748 385.78013602 329.98277837 386.00493832 327.30384827 384.06502342 C324.75419527 380.44183233 324.9791482 376.97302595 324.95521545 372.6905117 C324.95025055 372.01535515 324.94528564 371.34019859 324.94017029 370.64458275 C324.92557229 368.41232341 324.9187508 366.18013514 324.91322327 363.94783592 C324.90747007 362.39468446 324.90171235 360.84153301 324.89595032 359.28838158 C324.88544719 356.03179659 324.87959996 352.77523624 324.87611389 349.5186367 C324.87062919 345.35006272 324.84659903 341.18181537 324.81814194 337.01334381 C324.79949938 333.8048311 324.79430911 330.59639684 324.79277802 327.38783455 C324.78975483 325.85126903 324.78173753 324.31470479 324.76859283 322.77819252 C324.75149715 320.62631829 324.75342061 318.47523919 324.75990295 316.3233242 C324.75625732 315.0999334 324.75261169 313.87654259 324.74885559 312.61607933 C325.15068983 309.07488587 325.96515211 307.19310113 328.11634827 304.37752342 C330.49134827 303.37752342 330.49134827 303.37752342 333.11634827 303.37752342 C334.76634827 304.36752342 336.41634827 305.35752342 338.11634827 306.37752342 C338.11634827 313.96752342 338.11634827 321.55752342 338.11634827 329.37752342 C377.71634827 329.37752342 417.31634827 329.37752342 458.11634827 329.37752342 C458.11634827 301.65752342 458.11634827 273.93752342 458.11634827 245.37752342 C418.51634827 245.37752342 378.91634827 245.37752342 338.11634827 245.37752342 C338.11634827 252.96752342 338.11634827 260.55752342 338.11634827 268.37752342 C334.11634827 271.37752342 334.11634827 271.37752342 331.05384827 271.37752342 C328.11634827 270.37752342 328.11634827 270.37752342 326.45765686 268.2036953 C324.91308882 264.94925051 324.72923084 262.74885432 324.71791077 259.15877342 C324.71404358 257.97928123 324.71017639 256.79978905 324.70619202 255.58455467 C324.72359436 253.7495742 324.72359436 253.7495742 324.74134827 251.87752342 C324.7297467 250.65420311 324.71814514 249.4308828 324.70619202 248.17049217 C324.7100592 246.99099998 324.71392639 245.8115078 324.71791077 244.59627342 C324.72129456 243.52312889 324.72467834 242.44998436 324.72816467 241.3443203 C325.16775113 237.98466327 326.11899568 236.09104607 328.11634827 233.37752342 C330.64626378 232.11256567 332.38366596 232.25449731 335.2162323 232.25726891 C336.29374315 232.25589141 337.37125401 232.25451391 338.4814167 232.25309467 C340.26934796 232.25849184 340.26934796 232.25849184 342.09339905 232.26399803 C343.36239988 232.2638775 344.63140072 232.26375696 345.93885612 232.26363277 C349.37805459 232.26340659 352.81721841 232.2692113 356.25640869 232.27624321 C359.48112392 232.28192925 362.7058376 232.28220585 365.93055725 232.28291893 C375.3674922 232.28817066 384.80442067 232.30213176 394.24134827 232.31502342 C425.85947327 232.34596092 425.85947327 232.34596092 458.11634827 232.37752342 C458.11634827 160.10752342 458.11634827 87.83752342 458.11634827 13.37752342 C410.59634827 13.37752342 363.07634827 13.37752342 314.11634827 13.37752342 C314.11634827 65.18752342 314.11634827 116.99752342 314.11634827 170.37752342 C329.95634827 170.37752342 345.79634827 170.37752342 362.11634827 170.37752342 C363.43634827 171.69752342 364.75634827 173.01752342 366.11634827 174.37752342 C365.90206255 180.59180914 365.90206255 180.59180914 363.11634827 183.37752342 C361.14510441 183.63199902 361.14510441 183.63199902 358.68203735 183.63821983 C357.7496524 183.64530464 356.81726746 183.65238945 355.85662842 183.65968895 C354.83060013 183.65721153 353.80457184 183.65473412 352.74745178 183.65218163 C351.13027252 183.65984802 351.13027252 183.65984802 349.48042297 183.6676693 C345.90197766 183.68161614 342.32372384 183.68060469 338.74525452 183.67830467 C336.26665169 183.6821888 333.78804953 183.68652287 331.30944824 183.6912899 C326.10825953 183.69876308 320.90713868 183.69845288 315.70594788 183.69319725 C310.35626515 183.68782435 305.0067716 183.69486904 299.65711975 183.71370506 C293.2098079 183.73611869 286.76265438 183.74396416 280.31530571 183.7400322 C277.85325 183.74054691 275.39119067 183.74581251 272.92915535 183.75584412 C269.49079826 183.76813343 266.05298715 183.76146172 262.61463928 183.74983788 C261.59063522 183.75748161 260.56663116 183.76512535 259.51159668 183.77300072 C258.57639191 183.7659864 257.64118713 183.75897209 256.67764282 183.75174522 C255.45785909 183.75199684 255.45785909 183.75199684 254.21343327 183.75225353 C251.56989031 183.27987633 250.69199691 182.52786825 249.11634827 180.37752342 C248.67884827 176.87752342 248.67884827 176.87752342 249.11634827 173.37752342 C263.00607269 162.96023011 283.75419274 170.37752342 301.11634827 170.37752342 C301.11634827 118.56752342 301.11634827 66.75752342 301.11634827 13.37752342 C253.59634827 13.37752342 206.07634827 13.37752342 157.11634827 13.37752342 C157.11634827 65.18752342 157.11634827 116.99752342 157.11634827 170.37752342 C172.95634827 170.37752342 188.79634827 170.37752342 205.11634827 170.37752342 C206.43634827 171.36752342 207.75634827 172.35752342 209.11634827 173.37752342 C209.86392418 179.35813077 209.86392418 179.35813077 207.87366486 182.07204342 C205.62607355 183.74174 204.34717924 183.7568671 201.56178284 183.76520348 C200.62802322 183.77510811 199.69426361 183.78501274 198.73220825 183.79521751 C197.70977524 183.79071587 196.68734222 183.78621422 195.63392639 183.78157616 C194.55566086 183.78843941 193.47739532 183.79530266 192.36645508 183.80237389 C188.79336981 183.82071278 185.22072061 183.81679448 181.64759827 183.81111717 C179.17042395 183.81567526 176.6932509 183.82097971 174.21607971 183.82700157 C168.35481508 183.83709314 162.49370652 183.83095491 156.63244867 183.81974798 C151.95558687 183.81256292 147.27900467 183.82335883 142.60218811 183.84407616 C136.16016898 183.87227558 129.7184425 183.88104573 123.27636719 183.87384796 C120.8171006 183.8736942 118.35782564 183.8797834 115.89859009 183.89213943 C112.4649756 183.90696035 109.03235286 183.89643744 105.59877014 183.87923241 C104.06512062 183.89373436 104.06512062 183.89373436 102.50048828 183.90852928 C101.56672867 183.89869514 100.63296906 183.88886101 99.6709137 183.87872887 C98.85902336 183.87851958 98.04713303 183.8783103 97.21063995 183.87809467 C95.11634827 183.37752342 95.11634827 183.37752342 93.32387543 181.57276058 C91.49852769 178.25434977 92.18984868 175.95116468 93.11634827 172.37752342 C107.27207557 162.94037189 127.10328139 170.37752342 144.11634827 170.37752342 C144.11634827 118.56752342 144.11634827 66.75752342 144.11634827 13.37752342 C96.59634827 13.37752342 49.07634827 13.37752342 0.11634827 13.37752342 C0.11634827 65.18752342 0.11634827 116.99752342 0.11634827 170.37752342 C15.95634827 170.37752342 31.79634827 170.37752342 48.11634827 170.37752342 C52.11634827 173.37752342 52.11634827 173.37752342 52.99134827 175.81502342 C53.13231974 178.70493867 52.72842001 180.00183875 51.11634827 182.37752342 C48.6766733 183.59736091 47.11730302 183.49803869 44.39125061 183.49104881 C43.39665833 183.49092796 42.40206604 183.49080711 41.37733459 183.4906826 C40.32956848 183.48556664 39.28180237 183.48045067 38.20228577 183.47517967 C37.24104797 183.47417259 36.27981018 183.47316551 35.28944397 183.47212791 C31.69006664 183.46688597 28.09070629 183.45292476 24.49134827 183.44002342 C12.42572327 183.40908592 12.42572327 183.40908592 0.11634827 183.37752342 C0.11634827 199.54752342 0.11634827 215.71752342 0.11634827 232.37752342 C7.07212952 232.34271873 14.02791077 232.30791405 21.19447327 232.27205467 C25.59682539 232.25672902 29.9991447 232.24228735 34.40150452 232.23103905 C41.39164547 232.2130943 48.38166873 232.19184844 55.37171936 232.15120506 C61.00622092 232.11864789 66.64059628 232.10067801 72.27518463 232.09289169 C74.42661781 232.08734166 76.57804396 232.07650401 78.72942352 232.06033325 C81.73908503 232.03860764 84.74822273 232.03555449 87.75794983 232.03694725 C88.65059036 232.02616142 89.5432309 232.0153756 90.46292114 232.00426292 C94.00028972 232.02201708 96.46680119 232.05625556 99.66790771 233.63953209 C101.43451943 235.75929865 101.62654426 236.78612666 101.64979553 239.52596092 C101.66563187 240.35692284 101.6814682 241.18788475 101.69778442 242.04402733 C101.69282455 242.93783104 101.68786469 243.83163475 101.68275452 244.75252342 C101.68895309 245.67339745 101.69515167 246.59427147 101.70153809 247.54305077 C101.70864134 249.48981735 101.70545342 251.43664461 101.69276428 253.3833828 C101.67889747 256.36693796 101.71296125 259.34735835 101.75111389 262.33064842 C101.75206505 264.22127419 101.75020643 266.1119039 101.74525452 268.00252342 C101.75851273 268.89632713 101.77177094 269.79013084 101.78543091 270.71101952 C101.75029386 273.04065252 101.6722411 275.11502454 101.11634827 277.37752342 C98.77626038 279.49861717 98.77626038 279.49861717 96.11634827 280.37752342 C92.92884827 279.81502342 92.92884827 279.81502342 90.11634827 278.37752342 C85.18797238 268.52077165 88.11634827 256.39770693 88.11634827 245.37752342 C59.07634827 245.37752342 30.03634827 245.37752342 0.11634827 245.37752342 C0.11634827 279.03752342 0.11634827 312.69752342 0.11634827 347.37752342 C29.15634827 347.37752342 58.19634827 347.37752342 88.11634827 347.37752342 C88.11634827 337.80752342 88.11634827 328.23752342 88.11634827 318.37752342 C91.11634827 313.37752342 91.11634827 313.37752342 94.05384827 312.37752342 C97.11634827 312.37752342 97.11634827 312.37752342 99.27540588 313.42317772 C101.93586245 316.24752024 101.67683362 318.9632773 101.63392639 322.64705467 C101.64093567 323.38394524 101.64794495 324.1208358 101.65516663 324.88005638 C101.67277927 327.31709484 101.66111326 329.75297306 101.64759827 332.19002342 C101.65029227 333.88248989 101.65417392 335.57495484 101.65919495 337.267416 C101.66509439 340.81501052 101.65651297 344.36220227 101.63783264 347.90974998 C101.61504249 352.45984517 101.62816323 357.00899669 101.6521225 361.55905724 C101.66656863 365.05406889 101.66198001 368.54885638 101.65161133 372.04387474 C101.64894074 373.72163059 101.65222545 375.39940672 101.66152954 377.0771389 C101.67167612 379.42130592 101.65622294 381.76393955 101.63392639 384.10799217 C101.64202332 384.80314934 101.65012024 385.4983065 101.65846252 386.21452904 C101.60256469 389.38258882 101.48896567 390.98195252 99.27540588 393.33186913 C96.13116016 394.85466038 94.38605202 394.49061406 91.11634827 393.37752342 C88.11634827 388.37752342 88.11634827 388.37752342 88.11634827 360.37752342 C59.07634827 360.37752342 30.03634827 360.37752342 0.11634827 360.37752342 C0.11634827 393.70752342 0.11634827 427.03752342 0.11634827 461.37752342 C29.15634827 461.37752342 58.19634827 461.37752342 88.11634827 461.37752342 C88.11634827 451.80752342 88.11634827 442.23752342 88.11634827 432.37752342 C89.10634827 430.72752342 90.09634827 429.07752342 91.11634827 427.37752342 C94.61634827 426.87752342 94.61634827 426.87752342 98.11634827 427.37752342 C99.10634827 428.36752342 100.09634827 429.35752342 101.11634827 430.37752342 C101.11634827 440.60752342 101.11634827 450.83752342 101.11634827 461.37752342 C175.03634827 461.37752342 248.95634827 461.37752342 325.11634827 461.37752342 C325.11634827 448.83752342 325.11634827 436.29752342 325.11634827 423.37752342 C327.11634827 419.37752342 327.11634827 419.37752342 329.11634827 418.37752342 C334.4871733 417.92043193 334.4871733 417.92043193 336.78250122 419.58797264 C338.52877175 421.93084981 338.5023962 423.35271982 338.520401 426.26033592 C338.53942726 427.74702782 338.53942726 427.74702782 338.55883789 429.26375389 C338.55443443 430.86694481 338.55443443 430.86694481 338.54994202 432.50252342 C338.55518387 433.60096581 338.56042572 434.69940819 338.56582642 435.8311367 C338.57225256 438.15453305 338.57090201 440.4779619 338.56239319 442.80135155 C338.55388109 446.36378714 338.58264184 449.92462126 338.61439514 453.48689842 C338.61600709 455.74210627 338.61542974 457.99731697 338.61244202 460.25252342 C338.62367599 461.32131737 338.63490997 462.39011131 338.64648438 463.49129295 C338.63710342 464.48242088 338.62772247 465.47354881 338.61805725 466.49471092 C338.617808 467.80351219 338.617808 467.80351219 338.61755371 469.13875389 C338.11634827 471.37752342 338.11634827 471.37752342 336.44890785 472.9938513 C333.52832792 474.72633653 331.68092558 474.75345344 328.29418945 474.75504684 C327.09737077 474.76287009 325.90055208 474.77069333 324.66746616 474.77875364 C323.35114169 474.77206147 322.03481722 474.76536931 320.67860413 474.75847435 C319.26731726 474.76193009 317.8560331 474.76669408 316.4447546 474.77265608 C312.56210302 474.78520742 308.67967197 474.77897703 304.79701948 474.76969743 C300.61154639 474.76292414 296.42611185 474.7733796 292.24064636 474.78163719 C284.03953089 474.79499514 275.83849766 474.79208762 267.63737893 474.78339927 C260.97369475 474.77663123 254.31003367 474.77570219 247.64634705 474.77897072 C246.69887035 474.77943042 245.75139366 474.77989012 244.77520555 474.78036375 C242.85058061 474.7813229 240.92595567 474.78229554 239.00133073 474.78328152 C220.94314366 474.79184145 202.88500223 474.78199182 184.82682264 474.76588042 C169.32337342 474.75247669 153.81999158 474.75480462 138.31654358 474.7686367 C120.32411495 474.78468187 102.33172636 474.79101742 84.33929157 474.78179991 C82.42164422 474.78084424 80.50399686 474.77990113 78.58634949 474.77897072 C77.64276658 474.77850789 76.69918366 474.77804507 75.72700733 474.77756821 C69.06933282 474.77497513 62.41168365 474.77935617 55.75401306 474.78640938 C47.64338712 474.79481277 39.53284831 474.79256874 31.42223239 474.77656715 C27.28201548 474.76866874 23.14194398 474.76561942 19.00172806 474.7755146 C15.21437739 474.7844297 11.42730741 474.77958164 7.63998234 474.76358195 C5.61506477 474.75862365 3.59012784 474.7684591 1.56523037 474.77875364 C0.36841168 474.7709304 -0.828407 474.76310715 -2.06149292 474.75504684 C-3.09672057 474.75455979 -4.13194822 474.75407273 -5.19854641 474.75357091 C-8.43857877 474.2998062 -9.74897071 473.88111344 -11.88365173 471.37752342 C-12.28397484 468.68688293 -12.42100084 466.40090733 -12.3870163 463.70783043 C-12.39283006 462.9151088 -12.39864382 462.12238717 -12.40463376 461.30564368 C-12.41933033 458.62674564 -12.40530404 455.94875005 -12.3915863 453.26985741 C-12.39619141 451.33899495 -12.40254169 449.408136 -12.41049528 447.47728443 C-12.42726534 442.15382319 -12.41890749 436.83064706 -12.40655041 431.50718451 C-12.39753352 425.77295485 -12.41145288 420.03877566 -12.42247009 414.30455589 C-12.44029594 403.06428145 -12.43639725 391.82411358 -12.42481953 380.58383489 C-12.41580144 371.45205702 -12.41455415 362.3203091 -12.41891479 353.18852806 C-12.41952773 351.89093164 -12.42014066 350.59333522 -12.42077217 349.25641769 C-12.42205101 346.62072348 -12.42334786 343.98502927 -12.42466253 341.34933507 C-12.43575448 317.31574432 -12.424234 293.28221126 -12.40329214 269.24862979 C-12.38430885 247.2957949 -12.38600733 225.34305281 -12.40513611 203.39021873 C-12.42654172 178.74186361 -12.4349815 154.0935646 -12.42268705 129.44520092 C-12.4214128 126.81897355 -12.42015532 124.19274617 -12.41891479 121.56651878 C-12.41829769 120.27422228 -12.41768059 118.98192577 -12.41704479 117.65046877 C-12.41358498 108.52520311 -12.4194338 99.39997028 -12.42883301 90.2747097 C-12.44002883 79.16043966 -12.43706396 68.04628268 -12.41571003 56.93202567 C-12.40516702 51.25677308 -12.40113297 45.58170927 -12.41430664 39.9064579 C-12.42616925 34.71770205 -12.41976989 29.52931112 -12.39839643 24.34058869 C-12.39390422 22.45706105 -12.39625475 20.57350299 -12.40589958 18.68999469 C-12.41795289 16.14195512 -12.40570294 13.59518794 -12.3870163 11.04721642 C-12.39638096 10.30512133 -12.40574563 9.56302625 -12.41539407 8.79844344 C-12.37053733 5.7667505 -12.24967203 3.84274287 -10.34491968 1.42176282 C-6.9029484 -0.03855848 -3.67470795 -0.03446717 0 0 Z " stroke-width="20" stroke="#181818" fill="#181818" transform="translate(26.883651733398438,18.62247657775879)"/>
</svg>
