<?xml version="1.0" encoding="UTF-8"?>
<svg version="1.1" xmlns="http://www.w3.org/2000/svg" width="512" height="512">
<path d="M0 0 C1.07865326 -0.00623996 2.15730652 -0.01247993 3.26864624 -0.01890898 C6.89546342 -0.03490751 10.52161492 -0.02220737 14.1484375 -0.00964355 C16.74349359 -0.0150616 19.3385466 -0.02218246 21.93359375 -0.03088379 C28.25779314 -0.04868452 34.5818028 -0.04482221 40.90600967 -0.03323323 C46.04510304 -0.02420524 51.18414317 -0.02297214 56.32324219 -0.02732849 C57.41973996 -0.02824789 57.41973996 -0.02824789 58.53838921 -0.02918586 C60.02332816 -0.03046474 61.5082671 -0.0317616 62.99320602 -0.03307623 C76.92247659 -0.04448657 90.85164192 -0.03136123 104.78089523 -0.00987476 C116.73679537 0.00799666 128.69254017 0.00489268 140.6484375 -0.0135498 C154.52733926 -0.03494854 168.40614875 -0.04338789 182.2850647 -0.03110075 C183.76458739 -0.02982653 185.24411009 -0.02856905 186.72363281 -0.02732849 C187.81560628 -0.02640284 187.81560628 -0.02640284 188.92963982 -0.02545848 C194.06346728 -0.02200258 199.19723628 -0.02783908 204.33105469 -0.0372467 C211.23887883 -0.04962671 218.14640414 -0.04083189 225.05419922 -0.01766968 C227.59390778 -0.01236719 230.13364098 -0.01392247 232.67333984 -0.02272034 C236.13152254 -0.03359813 239.58875349 -0.02000508 243.046875 0 C244.56612076 -0.01338433 244.56612076 -0.01338433 246.11605835 -0.02703905 C252.89296184 0.04937296 252.89296184 0.04937296 256.14501953 2.41468048 C257.63169125 4.67232781 258.06532376 5.82721407 258.0234375 8.50793457 C258.03890625 9.49793457 258.03890625 9.49793457 258.0546875 10.50793457 C257.28130869 13.41947833 255.8215996 14.60052858 253.5234375 16.50793457 C251.04784012 17.01574326 251.04784012 17.01574326 248.2210083 17.0269165 C247.14691208 17.04082932 246.07281586 17.05474213 244.96617126 17.06907654 C243.79300858 17.06404617 242.61984589 17.05901581 241.41113281 17.05383301 C240.17184525 17.06417068 238.93255768 17.07450836 237.65571594 17.0851593 C234.26116978 17.10959748 230.86744365 17.11642393 227.47286701 17.11543941 C223.92402801 17.11856809 220.37535319 17.14418528 216.82659912 17.16741943 C210.10832552 17.20798663 203.39014899 17.22832176 196.67177176 17.24139333 C189.02240251 17.257261 181.37319853 17.29567557 173.72392511 17.33598661 C157.99047836 17.41839533 142.25706435 17.47248127 126.5234375 17.50793457 C127.27866196 18.05375687 128.03388641 18.59957916 128.81199646 19.16194153 C129.80272659 19.87980331 130.79345673 20.5976651 131.81420898 21.33728027 C132.79630844 22.04810257 133.7784079 22.75892487 134.79026794 23.49128723 C147.27995436 32.70670265 156.60611258 44.07145567 164.3359375 57.44543457 C164.85933716 58.33815063 164.85933716 58.33815063 165.39331055 59.24890137 C167.800068 63.5916162 169.51731092 68.10567296 171.1550293 72.78356934 C171.38400658 73.43140633 171.61298386 74.07924332 171.84889984 74.74671173 C172.40923518 76.33302605 172.96663462 77.9203769 173.5234375 79.50793457 C174.51680115 79.5115802 175.51016479 79.51522583 176.53363037 79.51898193 C185.89204814 79.55591228 195.25013626 79.61366327 204.60830307 79.69183731 C209.41954672 79.73135813 214.23060609 79.76352394 219.04199219 79.77893066 C223.68469469 79.79406702 228.32689071 79.82845846 232.96936798 79.87624359 C234.74114837 79.89108866 236.51300106 79.89897737 238.28484344 79.89981842 C240.76564119 79.90218051 243.24503054 79.92919688 245.72558594 79.96203613 C246.45926392 79.95700577 247.19294189 79.9519754 247.94885254 79.9467926 C251.40355913 80.01761855 253.21417453 80.26735568 255.9776001 82.41705322 C257.65528708 84.68627276 258.0669808 85.72116337 258.0234375 88.50793457 C258.03890625 89.49793457 258.03890625 89.49793457 258.0546875 90.50793457 C257.26089883 93.49631544 255.94873248 94.60346336 253.5234375 96.50793457 C250.90854128 96.91107606 248.70688082 97.0727191 246.09277344 97.05383301 C245.35091797 97.06417068 244.6090625 97.07450836 243.84472656 97.0851593 C241.39886724 97.11459722 238.95383508 97.11608661 236.5078125 97.11730957 C234.80957459 97.13229063 233.11135126 97.14901763 231.41314697 97.16741943 C226.94811333 97.21111382 222.48327622 97.23109657 218.01806641 97.24615479 C213.45984261 97.26571841 208.90183131 97.30768923 204.34375 97.34777832 C195.40371134 97.42310296 186.46372019 97.47338072 177.5234375 97.50793457 C177.53194733 98.36501007 177.54045715 99.22208557 177.54922485 100.10513306 C177.57716878 103.33103766 177.5974146 106.55687989 177.61270142 109.78286743 C177.62079744 111.17046152 177.63182825 112.55804209 177.64602661 113.94558716 C177.75595845 124.97707259 176.93104379 134.99466525 173.5234375 145.50793457 C173.30913086 146.18952637 173.09482422 146.87111816 172.87402344 147.57336426 C168.29141809 161.80145336 161.33630174 174.19405859 151.5234375 185.50793457 C150.85957031 186.31617676 150.19570313 187.12441895 149.51171875 187.95715332 C132.23959619 208.29419966 106.84723983 221.03523441 80.5234375 224.50793457 C75.50032874 224.81692822 70.48029001 224.87945793 65.44921875 224.92199707 C64.03003368 224.94075329 62.61085924 224.96032983 61.19169617 224.98068237 C57.4945814 225.03154014 53.79743066 225.0714106 50.10015869 225.10882568 C46.31212813 225.14915973 42.52424117 225.20011633 38.73632812 225.25012207 C31.33213053 225.34633074 23.92786216 225.43090757 16.5234375 225.50793457 C17.20760742 226.12317993 17.89177734 226.73842529 18.59667969 227.37231445 C19.49547852 228.18083862 20.39427734 228.98936279 21.3203125 229.8223877 C22.21073242 230.62325806 23.10115234 231.42412842 24.01855469 232.24926758 C26.86883631 234.81938263 29.69964472 237.40876167 32.5234375 240.00793457 C36.17229248 243.36131672 39.83513839 246.69792255 43.5234375 250.00793457 C47.73028077 253.78330674 51.90018603 257.59773905 56.0625 261.42199707 C59.20010836 264.30216064 62.35364691 267.16325071 65.5234375 270.00793457 C69.73028077 273.78330674 73.90018603 277.59773905 78.0625 281.42199707 C81.20010836 284.30216064 84.35364691 287.16325071 87.5234375 290.00793457 C91.73028077 293.78330674 95.90018603 297.59773905 100.0625 301.42199707 C103.20010836 304.30216064 106.35364691 307.16325071 109.5234375 310.00793457 C113.73028077 313.78330674 117.90018603 317.59773905 122.0625 321.42199707 C125.20010836 324.30216064 128.35364691 327.16325071 131.5234375 330.00793457 C135.73028077 333.78330674 139.90018603 337.59773905 144.0625 341.42199707 C147.99902658 345.0355266 151.96713561 348.61228319 155.9453125 352.17980957 C157.8392409 353.89008431 159.7243016 355.60767686 161.6015625 357.33605957 C162.12878906 357.8213916 162.65601563 358.30672363 163.19921875 358.8067627 C164.6886953 360.17981614 166.17643187 361.55475639 167.6640625 362.92980957 C169.68693924 364.75371483 171.71163033 366.49445657 173.8203125 368.21105957 C176.5234375 370.50793457 176.5234375 370.50793457 177.5234375 372.50793457 C178.09215788 379.56006727 178.09215788 379.56006727 176.0234375 383.00793457 C173.20543773 384.69873443 170.9535106 385.26075227 167.65625 385.07824707 C163.33819502 383.92360233 160.6059328 380.58474261 157.5234375 377.50793457 C155.94690119 376.0837077 154.36319711 374.66738598 152.7734375 373.25793457 C148.48882627 369.39389868 144.23403969 365.49824655 139.98535156 361.59484863 C136.84748607 358.71428409 133.69357055 355.85292577 130.5234375 353.00793457 C126.31659423 349.2325624 122.14668897 345.41813009 117.984375 341.59387207 C114.84676664 338.7137085 111.69322809 335.85261843 108.5234375 333.00793457 C104.31659423 329.2325624 100.14668897 325.41813009 95.984375 321.59387207 C92.84676664 318.7137085 89.69322809 315.85261843 86.5234375 313.00793457 C82.31659423 309.2325624 78.14668897 305.41813009 73.984375 301.59387207 C70.84676664 298.7137085 67.69322809 295.85261843 64.5234375 293.00793457 C60.31659423 289.2325624 56.14668897 285.41813009 51.984375 281.59387207 C48.84676664 278.7137085 45.69322809 275.85261843 42.5234375 273.00793457 C38.31659423 269.2325624 34.14668897 265.41813009 29.984375 261.59387207 C26.84676664 258.7137085 23.69322809 255.85261843 20.5234375 253.00793457 C16.83513173 249.69791657 13.17285055 246.36071331 9.5234375 243.00793457 C-0.3791461 233.89390652 -0.3791461 233.89390652 -10.5390625 225.07043457 C-14.22140003 221.85818269 -14.39647148 221.50106316 -14.7890625 216.63293457 C-14.94814927 213.74742978 -14.66372433 212.75726721 -12.9022522 210.41067505 C-9.58691503 207.81008428 -7.42784503 208.0029229 -3.23974609 207.99377441 C-2.51705032 207.98664932 -1.79435455 207.97952423 -1.04975891 207.97218323 C1.34210453 207.95287804 3.73308412 207.96119547 6.125 207.96887207 C7.80253373 207.95895409 9.48005657 207.94700867 11.15756226 207.93313599 C15.58614687 207.9007235 20.01448476 207.89038281 24.44317627 207.8862915 C31.48003609 207.87755953 38.51669169 207.84130068 45.55338669 207.79411697 C47.98461692 207.78176767 50.41557785 207.78227117 52.84683228 207.78439331 C60.66191344 207.76503815 68.3689533 207.46294593 76.14208984 206.61975098 C76.85770395 206.54285223 77.57331806 206.46595348 78.31061745 206.38672447 C97.58590467 204.08376785 115.30689695 195.69262943 129.5234375 182.50793457 C130.32265625 181.77703613 131.121875 181.0461377 131.9453125 180.29309082 C147.22620319 165.70445524 158.90865464 143.61295938 159.63696289 122.16467285 C159.63172607 120.98115234 159.62648926 119.79763184 159.62109375 118.57824707 C159.61787109 117.28918457 159.61464844 116.00012207 159.61132812 114.67199707 C159.60297483 113.32564222 159.59450991 111.97928805 159.5859375 110.63293457 C159.5809158 109.26314453 159.57635407 107.89335272 159.57226562 106.52355957 C159.56051004 103.18497268 159.54407714 99.84647642 159.5234375 96.50793457 C158.65099018 96.51162174 157.77854286 96.51530891 156.87965775 96.51910782 C135.66479074 96.60739142 114.44995533 96.67361133 93.23494339 96.71518326 C82.9755723 96.73582078 72.71632372 96.7639641 62.45703125 96.80969238 C53.51648464 96.84952373 44.57602673 96.87535873 35.63539386 96.88428855 C30.90003909 96.88950958 26.16493814 96.90180553 21.42966461 96.9308548 C16.97438622 96.95796546 12.51946666 96.96638842 8.06411362 96.9603653 C6.42741573 96.96146749 4.79070609 96.96944737 3.15407944 96.98475647 C0.92171406 97.00461725 -1.3092911 96.99988931 -3.54168701 96.98895264 C-4.7916383 96.99263981 -6.04158958 96.99632698 -7.32941818 97.00012589 C-11.05122515 96.41806136 -12.21979397 95.46321965 -14.4765625 92.50793457 C-15.0078125 90.50793457 -15.0078125 90.50793457 -14.9765625 88.50793457 C-14.99203125 87.51793457 -14.99203125 87.51793457 -15.0078125 86.50793457 C-14.22089561 83.54542391 -12.86008827 82.41150784 -10.4765625 80.50793457 C-7.40750504 80.00012589 -7.40750504 80.00012589 -3.73150635 79.98895264 C-3.05430251 79.98145139 -2.37709867 79.97395013 -1.6793735 79.96622157 C0.58873703 79.9459292 2.85584934 79.9540494 5.12402344 79.96203613 C6.75021861 79.95330189 8.37640518 79.94281663 10.00257874 79.93070984 C14.41755849 79.90281069 18.83225838 79.89944601 23.2473135 79.90042973 C27.86116772 79.89730398 32.47489525 79.87169284 37.08868408 79.84844971 C45.82566831 79.80786021 54.56257784 79.78754208 63.29964185 79.77447581 C73.24640809 79.75861575 83.19304704 79.72020433 93.13973951 79.67988253 C113.60093021 79.59744323 134.06211498 79.54337631 154.5234375 79.50793457 C153.25380522 76.94156445 151.98126806 74.37670485 150.70703125 71.81262207 C150.35008179 71.09034424 149.99313232 70.36806641 149.62536621 69.62390137 C138.39542202 47.06104501 119.34298994 30.67130628 95.5234375 22.50793457 C80.8020409 17.9510369 66.31226987 17.37431996 51.01112175 17.33926964 C48.49273216 17.33198542 45.97452444 17.31624217 43.45619202 17.29792786 C36.30716111 17.24595129 29.15824996 17.19737599 22.0090332 17.18200684 C17.61071416 17.17193946 13.21288556 17.14267814 8.81476021 17.10068703 C7.14624291 17.08838628 5.47765653 17.08325409 3.80909538 17.08548546 C1.48539149 17.087833 -0.83688884 17.06572727 -3.16040039 17.03796387 C-4.48020401 17.03209763 -5.80000763 17.02623138 -7.1598053 17.02018738 C-10.98995097 16.42864487 -12.17518437 15.56273489 -14.4765625 12.50793457 C-15.0078125 10.50793457 -15.0078125 10.50793457 -14.9765625 8.50793457 C-14.99203125 7.51793457 -14.99203125 7.51793457 -15.0078125 6.50793457 C-13.02285131 -0.96486051 -6.31709008 -0.05565263 0 0 Z " stroke-width="20" stroke="#181818" fill="#181818" transform="translate(150.4765625,71.4920654296875)"/>
</svg>
