<?xml version="1.0" encoding="UTF-8"?>
<svg version="1.1" xmlns="http://www.w3.org/2000/svg" width="512" height="512">
<path d="M0 0 C8.9683252 6.45959771 15.02491759 14.69443984 17.58203125 25.4921875 C18.04058667 31.24228216 17.96149644 36.91075295 17.83203125 42.6796875 C17.74953125 47.8978125 17.66703125 53.1159375 17.58203125 58.4921875 C33.42203125 58.4921875 49.26203125 58.4921875 65.58203125 58.4921875 C65.42475781 48.12688131 65.42475781 48.12688131 65.22167969 37.76245117 C65.12366363 24.88519623 67.49581527 15.01022365 76.58203125 5.4921875 C85.80916302 -3.31632203 95.43247449 -6.13355551 107.94677734 -5.97851562 C119.77400632 -5.51030778 128.42310232 -0.959443 136.5546875 7.55859375 C145.53056431 18.21149213 146.1372951 29.35895217 145.83203125 42.6796875 C145.81191942 44.2193776 145.79367699 45.7590933 145.77734375 47.29882812 C145.73375586 51.03048958 145.66499241 54.76116908 145.58203125 58.4921875 C146.99512573 58.4607666 146.99512573 58.4607666 148.43676758 58.42871094 C151.98358239 58.35991261 155.5296726 58.31008936 159.0769043 58.27246094 C160.60240984 58.25253439 162.12784093 58.22538265 163.65307617 58.19042969 C177.40281967 57.88357621 188.2881694 59.66534395 198.58203125 69.4921875 C207.39054078 78.71931927 210.20777426 88.34263074 210.05273438 100.85693359 C209.58452653 112.68416257 205.03366175 121.33325857 196.515625 129.46484375 C185.82195914 138.47507026 174.83912427 139.04390817 161.39453125 138.7421875 C153.56734375 138.6184375 153.56734375 138.6184375 145.58203125 138.4921875 C145.58203125 154.3321875 145.58203125 170.1721875 145.58203125 186.4921875 C155.94733744 186.33491406 155.94733744 186.33491406 166.31176758 186.13183594 C179.18902252 186.03381988 189.0639951 188.40597152 198.58203125 197.4921875 C207.39054078 206.71931927 210.20777426 216.34263074 210.05273438 228.85693359 C209.58452653 240.68416257 205.03366175 249.33325857 196.515625 257.46484375 C186.35211661 266.02837228 175.57225573 267.61873725 162.67919922 266.73730469 C156.68613624 266.03683493 151.55237284 263.80574856 146.58203125 260.4921875 C146.25203125 339.0321875 145.92203125 417.5721875 145.58203125 498.4921875 C140.30203125 498.4921875 135.02203125 498.4921875 129.58203125 498.4921875 C129.58203125 400.8121875 129.58203125 303.1321875 129.58203125 202.4921875 C113.74203125 202.4921875 97.90203125 202.4921875 81.58203125 202.4921875 C81.73930469 212.85749369 81.73930469 212.85749369 81.94238281 223.22192383 C82.04039887 236.09917877 79.66824723 245.97415135 70.58203125 255.4921875 C61.35489948 264.30069703 51.73158801 267.11793051 39.21728516 266.96289062 C27.39005618 266.49468278 18.74096018 261.943818 10.609375 253.42578125 C1.63349819 242.77288287 1.0267674 231.62542283 1.33203125 218.3046875 C1.35214308 216.7649974 1.37038551 215.2252817 1.38671875 213.68554688 C1.43030664 209.95388542 1.49907009 206.22320592 1.58203125 202.4921875 C0.63996826 202.51313477 -0.30209473 202.53408203 -1.27270508 202.55566406 C-4.81951989 202.62446239 -8.3656101 202.67428564 -11.9128418 202.71191406 C-13.43834734 202.73184061 -14.96377843 202.75899235 -16.48901367 202.79394531 C-30.23875717 203.10079879 -41.1241069 201.31903105 -51.41796875 191.4921875 C-60.22647828 182.26505573 -63.04371176 172.64174426 -62.88867188 160.12744141 C-62.42046403 148.30021243 -57.86959925 139.65111643 -49.3515625 131.51953125 C-38.65789664 122.50930474 -27.67506177 121.94046683 -14.23046875 122.2421875 C-6.40328125 122.3659375 -6.40328125 122.3659375 1.58203125 122.4921875 C1.58203125 106.6521875 1.58203125 90.8121875 1.58203125 74.4921875 C-96.09796875 74.4921875 -193.77796875 74.4921875 -294.41796875 74.4921875 C-294.41796875 69.2121875 -294.41796875 63.9321875 -294.41796875 58.4921875 C-176.60796875 57.9971875 -176.60796875 57.9971875 -56.41796875 57.4921875 C-58.06796875 54.1921875 -59.71796875 50.8921875 -61.41796875 47.4921875 C-64.06287109 36.91257815 -63.75946922 24.14797681 -58.41796875 14.4921875 C-52.79773987 5.47943705 -44.89158209 -1.53748243 -34.703125 -4.84765625 C-22.7242094 -7.2548343 -10.50675303 -6.55186861 0 0 Z M-41.97265625 21.39453125 C-46.0977477 27.38148831 -46.13405017 33.44153962 -45.41796875 40.4921875 C-43.6211769 47.22447087 -38.93476027 51.5121375 -33.41796875 55.4921875 C-28.16166025 58.24549195 -22.44228923 58.62135051 -16.58203125 58.58984375 C-14.98681641 58.58500977 -14.98681641 58.58500977 -13.359375 58.58007812 C-12.26496094 58.57169922 -11.17054688 58.56332031 -10.04296875 58.5546875 C-8.92535156 58.55017578 -7.80773437 58.54566406 -6.65625 58.54101562 C-3.91010071 58.52927994 -1.16406289 58.51286113 1.58203125 58.4921875 C1.64076053 54.6797537 1.67587041 50.86743844 1.70703125 47.0546875 C1.72378906 45.98541016 1.74054688 44.91613281 1.7578125 43.81445312 C1.81298953 34.79300917 1.51207729 26.70440566 -4.41796875 19.4921875 C-9.81661637 14.13210165 -14.41880907 11.21956836 -22.23046875 11.1171875 C-31.37688205 11.31894662 -36.12964348 14.55956515 -41.97265625 21.39453125 Z M87.70703125 19.4296875 C78.51758131 30.7285339 81.58203125 44.1044587 81.58203125 58.4921875 C97.42203125 58.4921875 113.26203125 58.4921875 129.58203125 58.4921875 C131.06598534 37.86765492 131.06598534 37.86765492 123.58203125 19.4921875 C118.18338363 14.13210165 113.58119093 11.21956836 105.76953125 11.1171875 C97.72493329 11.29464187 93.12584803 13.5435395 87.70703125 19.4296875 Z M17.58203125 74.4921875 C17.58203125 90.3321875 17.58203125 106.1721875 17.58203125 122.4921875 C33.42203125 122.4921875 49.26203125 122.4921875 65.58203125 122.4921875 C65.58203125 106.6521875 65.58203125 90.8121875 65.58203125 74.4921875 C49.74203125 74.4921875 33.90203125 74.4921875 17.58203125 74.4921875 Z M81.58203125 74.4921875 C81.58203125 90.3321875 81.58203125 106.1721875 81.58203125 122.4921875 C97.42203125 122.4921875 113.26203125 122.4921875 129.58203125 122.4921875 C129.58203125 106.6521875 129.58203125 90.8121875 129.58203125 74.4921875 C113.74203125 74.4921875 97.90203125 74.4921875 81.58203125 74.4921875 Z M145.58203125 74.4921875 C145.58203125 90.3321875 145.58203125 106.1721875 145.58203125 122.4921875 C166.20656383 123.97614159 166.20656383 123.97614159 184.58203125 116.4921875 C189.9421171 111.09353988 192.85465039 106.49134718 192.95703125 98.6796875 C192.8067835 91.86845623 191.41336865 87.47720918 186.7109375 82.51953125 C174.65349286 71.41938845 162.49352765 74.4921875 145.58203125 74.4921875 Z M-37.41796875 144.4921875 C-42.7780546 149.89083512 -45.69058789 154.49302782 -45.79296875 162.3046875 C-45.642721 169.11591877 -44.24930615 173.50716582 -39.546875 178.46484375 C-27.48943036 189.56498655 -15.32946515 186.4921875 1.58203125 186.4921875 C1.58203125 170.6521875 1.58203125 154.8121875 1.58203125 138.4921875 C-19.04250133 137.00823341 -19.04250133 137.00823341 -37.41796875 144.4921875 Z M17.58203125 138.4921875 C17.58203125 154.3321875 17.58203125 170.1721875 17.58203125 186.4921875 C33.42203125 186.4921875 49.26203125 186.4921875 65.58203125 186.4921875 C65.58203125 170.6521875 65.58203125 154.8121875 65.58203125 138.4921875 C49.74203125 138.4921875 33.90203125 138.4921875 17.58203125 138.4921875 Z M81.58203125 138.4921875 C81.58203125 154.3321875 81.58203125 170.1721875 81.58203125 186.4921875 C97.42203125 186.4921875 113.26203125 186.4921875 129.58203125 186.4921875 C129.58203125 170.6521875 129.58203125 154.8121875 129.58203125 138.4921875 C113.74203125 138.4921875 97.90203125 138.4921875 81.58203125 138.4921875 Z M17.58203125 202.4921875 C16.09807716 223.11672008 16.09807716 223.11672008 23.58203125 241.4921875 C28.98067887 246.85227335 33.58287157 249.76480664 41.39453125 249.8671875 C48.20576252 249.71693975 52.59700957 248.3235249 57.5546875 243.62109375 C68.6548303 231.56364911 65.58203125 219.4036839 65.58203125 202.4921875 C49.74203125 202.4921875 33.90203125 202.4921875 17.58203125 202.4921875 Z M145.58203125 202.4921875 C145.52330197 206.3046213 145.48819209 210.11693656 145.45703125 213.9296875 C145.44027344 214.99896484 145.42351562 216.06824219 145.40625 217.16992188 C145.35107297 226.19136583 145.65198521 234.27996934 151.58203125 241.4921875 C156.98067887 246.85227335 161.58287157 249.76480664 169.39453125 249.8671875 C176.20576252 249.71693975 180.59700957 248.3235249 185.5546875 243.62109375 C191.4399512 237.22827137 193.07812161 232.16911732 192.88671875 223.4921875 C192.21993495 216.92693166 189.42545188 213.01852653 184.64453125 208.6171875 C178.25520938 203.42069652 171.88535503 202.35077178 163.74609375 202.39453125 C162.15087891 202.39936523 162.15087891 202.39936523 160.5234375 202.40429688 C158.88181641 202.41686523 158.88181641 202.41686523 157.20703125 202.4296875 C156.08941406 202.43419922 154.97179687 202.43871094 153.8203125 202.44335938 C151.07416321 202.45509506 148.32812539 202.47151387 145.58203125 202.4921875 Z " fill="#e2a161" transform="translate(302.41796875,5.5078125)"/>
<path d="M0 0 C5.28 0 10.56 0 16 0 C16 73.92 16 147.84 16 224 C10.72 224 5.44 224 0 224 C0 150.08 0 76.16 0 0 Z " fill="#e2a161" transform="translate(392,280)"/>
<path d="M0 0 C73.92 0 147.84 0 224 0 C224 5.28 224 10.56 224 16 C150.08 16 76.16 16 0 16 C0 10.72 0 5.44 0 0 Z " fill="#e2a161" transform="translate(8,104)"/>
</svg>
